<?xml version="1.0" standalone="no"?>
<!DOCTYPE svg PUBLIC "-//W3C//DTD SVG 20010904//EN"
 "http://www.w3.org/TR/2001/REC-SVG-20010904/DTD/svg10.dtd">

<svg width="87" height="98" viewBox="0 0 87 98" fill="none" xmlns="http://www.w3.org/2000/svg">
<path d="M82.0208 80.8669L83.1986 79.2499L81.8792 77.7461L71.2033 65.5785C71.3668 64.0589 71.498 61.6763 71.5396 58.8335C71.5983 54.8211 71.4811 49.6458 70.9642 44.1205C70.4481 38.6024 69.5286 32.6812 67.9632 27.199C66.4056 21.7435 64.1619 16.5552 60.8983 12.643C54.3021 4.73583 47.2195 2.32363 40.9369 2.50989C34.8207 2.69122 29.7871 5.32802 27.1193 6.86688C23.5654 8.91691 18.1076 12.995 13.5773 18.1847C9.67393 22.6561 6.62571 27.977 4.67261 32.6371C2.39496 38.0717 1.69621 46.8007 3.60492 56.3383C5.52841 65.9497 10.143 76.6231 18.7919 85.936C25.9297 93.6217 33.6371 95.9164 40.4369 95.4402C46.395 95.0228 51.4796 92.4951 54.7487 89.9818L70.0802 94.4528L71.7666 94.9446L72.8008 93.5247L82.0208 80.8669ZM21.9578 41.2196C23.3823 34.814 27.0244 30.1921 30.921 27.0897C34.8041 23.9982 38.7457 22.5666 40.6676 22.3299C41.5097 22.344 42.5715 22.4951 43.5474 22.8117C44.6169 23.1587 45.2841 23.6059 45.5866 23.9876C46.7666 25.4766 47.7597 26.9759 49.5611 33.5222C50.9709 38.6455 52.5524 51.4288 53.1732 57.3197C53.4203 59.6642 53.2965 62.3929 51.7292 65.8019C51.3125 66.7085 50.2806 68.1341 48.9485 69.6427C47.6459 71.118 46.2692 72.4338 45.346 73.14C42.1679 75.5711 39.2154 75.6257 36.4113 74.3412C33.4073 72.9651 30.429 69.9563 27.9021 65.9788C23.4933 59.039 20.0152 49.9549 21.9578 41.2196Z" fill="#E17BB3" stroke="#145367" stroke-width="5"/>
</svg>

